<svg xmlns="http://www.w3.org/2000/svg" width="32" height="32" viewBox="0 0 32 32" fill="none">
  <rect width="32" height="32" rx="16" fill="#4F46E5"/>
  <path d="M21 11H11C9.9 11 9 11.9 9 13V21C9 22.1 9.9 23 11 23H21C22.1 23 23 22.1 23 21V13C23 11.9 22.1 11 21 11ZM21 13V19H11V13H21ZM11 21V20H21V21H11ZM17 18H15C14.45 18 14 17.55 14 17C14 16.45 14.45 16 15 16H17C17.55 16 18 16.45 18 17C18 17.55 17.55 18 17 18ZM19 16H18C17.45 16 17 15.55 17 15C17 14.45 17.45 14 18 14H19C19.55 14 20 14.45 20 15C20 15.55 19.55 16 19 16ZM15 16H14C13.45 16 13 15.55 13 15C13 14.45 13.45 14 14 14H15C15.55 14 16 14.45 16 15C16 15.55 15.55 16 15 16Z" fill="white"/>
</svg> 