<svg xmlns="http://www.w3.org/2000/svg" width="32" height="32" viewBox="0 0 32 32" fill="none">
  <rect width="32" height="32" rx="16" fill="#10B981"/>
  <path d="M16 8C13.79 8 12 9.79 12 12C12 14.21 13.79 16 16 16C18.21 16 20 14.21 20 12C20 9.79 18.21 8 16 8ZM16 14C14.9 14 14 13.1 14 12C14 10.9 14.9 10 16 10C17.1 10 18 10.9 18 12C18 13.1 17.1 14 16 14ZM16 17C13.33 17 8 18.34 8 21V24H24V21C24 18.34 18.67 17 16 17ZM16 19C18.11 19 20.61 19.85 21.34 21H10.66C11.39 19.85 13.9 19 16 19Z" fill="white"/>
</svg> 